# xmcd
#
# Track frame offsets: 
#        150
#        12490
#        26900
#        38750
#        49725
#        62770
#        71962
#        87732
#        100100
#        112762
#        126085
#        136875
#        147802
#        157127
#        178234
#        192372
#
# Disc length: 2696 seconds
#
# Revision: 8
# Processed by: cddbd v1.5.2PL0 Copyright (c) Steve Scherf et al.
# Submitted via: ExactAudioCopyFreeDBPlugin 1.0
#
DISCID=eb0a8610
DTITLE=Various Artist - Country - Hits Vol.1
DYEAR=1900
DGENRE=Country
TTITLE0=Lynn Anderson - Stand By Your Man
TTITLE1=George Jones - A Good Year For The Roses
TTITLE2=Waylon Jennings - Crying
TTITLE3=Hank Locklin - Send Me The Pillow You Dream On
TTITLE4=Kenny Rogers - Ruby Don't Take Your Love To Town
TTITLE5=Frankie Laine - Rawhide
TTITLE6=Billie Jo Spears - Blanket On The Ground
TTITLE7=Jonny Cash - I Walk The Line
TTITLE8=Willie Nelson - Any Ol' Arms Won't Do
TTITLE9=Patti Page - Tennessee Waltz
TTITLE10=Roger Miller - King Of The Road
TTITLE11=Dolly Parton - It Wasn't God Who Made Honky Tonk Angles
TTITLE12=The Bellamy Brothers - Let Your Love Flow (live)
TTITLE13=Andre Lamberz and Hill's Angels - The Bluest Eyes Of Texas
TTITLE14=Sammy's Saloon - Country Guitar No.1
TTITLE15=Jim Reeves - We'll Have To Go
EXTD=CD 881
EXTT0=
EXTT1=
EXTT2=
EXTT3=
EXTT4=
EXTT5=
EXTT6=
EXTT7=
EXTT8=
EXTT9=
EXTT10=
EXTT11=
EXTT12=
EXTT13=
EXTT14=
EXTT15=
PLAYORDER=
